# xmcd
#
# Track frame offsets: 
#        150
#        24975
#        48300
#        76500
#        95175
#        115500
#        136200
#        161175
#        188325
#        212775
#
# Disc length: 3087 seconds
#
# Revision: 0
# Processed by: cddbd v1.5.2PL0 Copyright (c) Steve Scherf et al.
# Submitted via: ExactAudioCopy v1.0b3
#
DISCID=750c0d0a
DTITLE=Che Linh - Hoa Trinh Nu
DYEAR=1993
DGENRE=
TTITLE0=Hoa trinh nu
TTITLE1=Bien man
TTITLE2=Doi thong hai mo
TTITLE3=Nguoi yeu co don
TTITLE4=Nha anh nha em
TTITLE5=Truc dao
TTITLE6=Lan va Diep
TTITLE7=Nhat ky doi toi
TTITLE8=Dinh menh buon
TTITLE9=Chuyen ba mua mua
EXTD=
EXTT0=
EXTT1=
EXTT2=
EXTT3=
EXTT4=
EXTT5=
EXTT6=
EXTT7=
EXTT8=
EXTT9=
PLAYORDER=
